G04 ================== begin FILE IDENTIFICATION RECORD ==================*
G04 Layout Name:  180708_planta-twittera-rev2_gerbers.brd*
G04 Film Name:    BOTTOM*
G04 File Format:  Gerber RS274X*
G04 File Origin:  Cadence Allegro 17.2-P019*
G04 Origin Date:  Mon Jul 09 10:24:24 2018*
G04 *
G04 Layer:  VIA CLASS/BOTTOM*
G04 Layer:  PIN/BOTTOM*
G04 Layer:  ETCH/BOTTOM*
G04 *
G04 Offset:    (0.0000 0.0000)*
G04 Mirror:    No*
G04 Mode:      Positive*
G04 Rotation:  0*
G04 FullContactRelief:  No*
G04 UndefLineWidth:     0.0000*
G04 ================== end FILE IDENTIFICATION RECORD ====================*
%FSLAX25Y25*MOIN*%
%IR0*IPPOS*OFA0.00000B0.00000*MIA0B0*SFA1.00000B1.00000*%
%ADD10C,.026*%
%ADD11C,.06*%
%ADD12R,.06X.06*%
%ADD13C,.007874*%
%ADD14C,.015748*%
%ADD15C,.075764*%
G75*
%LPD*%
G75*
G36*
G01X122434Y-46237D02*
G03X124778Y-43968I3550J-1322D01*
G01X124661Y-44007D01*
X114173Y-33520D01*
Y-19685D01*
X149606D01*
G02X153543Y-23622I0J-3937D01*
G01Y-267717D01*
G02X149606Y-271654I-3937J0D01*
G01X139371D01*
Y-244346D01*
G02X139770Y-243946I400J0D01*
G03X143355Y-238952I-6J3788D01*
G01X143315Y-238834D01*
X147245Y-234905D01*
Y-140686D01*
X42543Y-35983D01*
X39862D01*
G03Y-39135I-3445J-1576D01*
G01X41237D01*
X144094Y-141991D01*
Y-152361D01*
X141229D01*
X136220Y-157371D01*
Y-159154D01*
G03X139371I1576J-3445D01*
G01Y-158676D01*
X142535Y-155513D01*
X144094D01*
Y-233599D01*
X141086Y-236607D01*
G03X136220Y-241495I-1322J-3550D01*
G01Y-271654D01*
X125984D01*
G02X122047Y-267717I0J3937D01*
G03X110236Y-255906I-11811J0D01*
G01X47244D01*
G03X35433Y-267717I0J-11811D01*
G02X31496Y-271654I-3937J0D01*
G01X7874D01*
G02X3937Y-267717I0J3937D01*
G01Y-23622D01*
G02X7874Y-19685I3937J0D01*
G01X29090D01*
G02X29372Y-20368I0J-400D01*
G01X26771Y-22969D01*
Y-90141D01*
X32867Y-96237D01*
G03X35095Y-94009I3550J-1322D01*
G01X29922Y-88835D01*
Y-24275D01*
X33724Y-20473D01*
X47244D01*
Y-39370D01*
X97142D01*
X116906Y-59135D01*
X122539D01*
G03Y-55983I3445J1576D01*
G01X118212D01*
X102281Y-40053D01*
G02X102564Y-39370I283J283D01*
G01X114173D01*
Y-38942D01*
G02X114856Y-38659I400J0D01*
G01X122434Y-46237D01*
G37*
G36*
G01X11811Y-417323D02*
Y-397638D01*
X15748Y-393701D01*
X11811Y-389764D01*
Y-370079D01*
X15748Y-366142D01*
X11811Y-362205D01*
Y-342520D01*
X15748Y-338583D01*
X11811Y-334646D01*
Y-314961D01*
X15748Y-311024D01*
X11811Y-307087D01*
Y-295276D01*
X19685Y-291339D01*
X27559Y-295276D01*
Y-307087D01*
X23622Y-311024D01*
X27559Y-314961D01*
Y-334646D01*
X23622Y-338583D01*
X27559Y-342520D01*
Y-362205D01*
X23622Y-366142D01*
X27559Y-370079D01*
Y-389764D01*
X23622Y-393701D01*
X27559Y-397638D01*
Y-417323D01*
X20065Y-439807D01*
G02X19306I-380J127D01*
G01X11811Y-417323D01*
G37*
G36*
G01X129921D02*
Y-397638D01*
X133858Y-393701D01*
X129921Y-389764D01*
Y-370079D01*
X133858Y-366142D01*
X129921Y-362205D01*
Y-342520D01*
X133858Y-338583D01*
X129921Y-334646D01*
Y-314961D01*
X133858Y-311024D01*
X129921Y-307087D01*
Y-295276D01*
X137795Y-291339D01*
X145669Y-295276D01*
Y-307087D01*
X141732Y-311024D01*
X145669Y-314961D01*
Y-334646D01*
X141732Y-338583D01*
X145669Y-342520D01*
Y-362205D01*
X141732Y-366142D01*
X145669Y-370079D01*
Y-389764D01*
X141732Y-393701D01*
X145669Y-397638D01*
Y-417323D01*
X137985Y-440376D01*
G02X137606I-190J63D01*
G01X129921Y-417323D01*
G37*
%LPC*%
G75*
G36*
G01X122196Y-30559D02*
Y-24559D01*
G02X122984Y-23771I788J0D01*
G01X128984D01*
G02X129772Y-24559I0J-788D01*
G01Y-30559D01*
G02X128984Y-31347I-788J0D01*
G01X122984D01*
G02X122196Y-30559I0J788D01*
G37*
G36*
G01X122772Y-72370D02*
X104446Y-90695D01*
X104439Y-90766D01*
G02X102148Y-88474I-2077J215D01*
G01X102219Y-88467D01*
X121467Y-69219D01*
X122096D01*
X122434Y-68881D01*
G02X124662Y-71109I3550J1322D01*
G01X123402Y-72370D01*
X122772D01*
G37*
G36*
G01X76628Y-114057D02*
X92404Y-98281D01*
X92411Y-98211D01*
G02X94703Y-100502I2077J-215D01*
G01X94632Y-100509D01*
X78856Y-116285D01*
X78849Y-116356D01*
G02X76557Y-114065I-2077J215D01*
G01X76628Y-114057D01*
G37*
G36*
G01X76656Y-130065D02*
X54974Y-108383D01*
X54904Y-108376D01*
G02X57195Y-106085I215J2077D01*
G01X57202Y-106156D01*
X78884Y-127837D01*
X78955Y-127844D01*
G02X76663Y-130136I-215J-2077D01*
G01X76656Y-130065D01*
G37*
G36*
G01X87267Y-143308D02*
X85276Y-145298D01*
Y-146949D01*
G02X80151Y-149072I-1576J-3445D01*
G01X45669Y-114590D01*
Y-63645D01*
X41158Y-59135D01*
X39862D01*
G02Y-55983I-3445J1576D01*
G01X42464D01*
X48820Y-62339D01*
Y-113284D01*
X81443Y-145907D01*
G03X82125Y-145624I283J283D01*
G01Y-143993D01*
X85961Y-140157D01*
X118259D01*
X123623Y-145520D01*
Y-159154D01*
G02X120472I-1576J-3445D01*
G01Y-146826D01*
X116954Y-143308D01*
X87267D01*
G37*
G36*
G01X55262Y-139880D02*
X41930Y-153212D01*
Y-164862D01*
G02Y-171752I-1576J-3445D01*
G01Y-190453D01*
G02X38779I-1576J-3445D01*
G01Y-171752D01*
G02Y-164862I1576J3445D01*
G01Y-151906D01*
X53034Y-137652D01*
X53041Y-137581D01*
G02X55333Y-139872I2077J-215D01*
G01X55262Y-139880D01*
G37*
G36*
G01X97251Y-151716D02*
X109843Y-164308D01*
Y-222420D01*
G03X110526Y-222703I400J0D01*
G01X110806Y-222423D01*
Y-221611D01*
X118496Y-213922D01*
X118456Y-213804D01*
G02X125492Y-211023I3591J1206D01*
G01X134350D01*
G02Y-214174I3445J-1576D01*
G01X125492D01*
G02X120841Y-216189I-3445J1576D01*
G01X120724Y-216150D01*
X113957Y-222917D01*
Y-223729D01*
X112056Y-225630D01*
Y-230190D01*
G02X111268Y-230978I-788J0D01*
G01X109843D01*
Y-232417D01*
X95283Y-246977D01*
X93507D01*
X92528Y-247956D01*
Y-252515D01*
G02X91740Y-253304I-788J0D01*
G01X85740D01*
G02X84952Y-252515I0J788D01*
G01Y-246515D01*
G02X85740Y-245727I788J0D01*
G01X90300D01*
X92201Y-243826D01*
X93978D01*
X106143Y-231661D01*
G03X105861Y-230978I-283J283D01*
G01X105268D01*
G02X104480Y-230190I0J788D01*
G01Y-224190D01*
G02X105268Y-223402I788J0D01*
G01X106692D01*
Y-165613D01*
X95024Y-153945D01*
X94907Y-153985D01*
G02X97251Y-151716I-1206J3591D01*
G37*
G54D15*
X22638Y-193898D03*
Y-168701D03*
X49213Y-227190D03*
X36417Y-77559D03*
Y-87559D03*
Y-67559D03*
Y-47559D03*
Y-27559D03*
X68740Y-249515D03*
X63701Y-150394D03*
X73701D03*
X120079Y-240157D03*
X125984Y-97559D03*
Y-87559D03*
Y-77559D03*
Y-37559D03*
%LPD*%
G75*
G54D10*
X9055Y-261811D03*
X19685Y-418819D03*
Y-398819D03*
Y-408819D03*
Y-378819D03*
Y-388819D03*
Y-368819D03*
Y-358819D03*
Y-348819D03*
Y-338819D03*
Y-328819D03*
Y-318819D03*
Y-308819D03*
Y-298819D03*
Y-261811D03*
X20472Y-204331D03*
X13780D03*
Y-161024D03*
X28346Y-141732D03*
X13780Y-126772D03*
Y-101969D03*
Y-75197D03*
Y-50787D03*
Y-27559D03*
X29921Y-261811D03*
X64961Y-198031D03*
X55118Y-137795D03*
Y-106299D03*
X67717Y-88976D03*
X53543Y-57874D03*
X68898Y-18898D03*
X71260Y-167717D03*
X78740Y-129921D03*
X76772Y-116142D03*
X77165Y-46850D03*
X91732Y-209055D03*
X100394Y-114173D03*
X94488Y-98425D03*
X102362Y-90551D03*
X90945Y-57087D03*
X127953Y-261417D03*
X113386Y-176378D03*
X137795Y-420394D03*
Y-410394D03*
Y-400394D03*
Y-390394D03*
Y-380394D03*
Y-370394D03*
Y-360394D03*
Y-350394D03*
Y-340394D03*
Y-330394D03*
Y-320394D03*
Y-300394D03*
Y-310394D03*
X146063Y-261417D03*
X148819Y-71260D03*
X148425Y-50394D03*
Y-29528D03*
X150394Y-248819D03*
Y-217323D03*
Y-194882D03*
Y-173228D03*
G54D11*
X22638Y-193898D03*
Y-168701D03*
X49213Y-227190D03*
X40354Y-193898D03*
Y-168307D03*
X36417Y-97559D03*
Y-77559D03*
Y-87559D03*
Y-57559D03*
Y-67559D03*
Y-37559D03*
Y-47559D03*
Y-27559D03*
X68740Y-249515D03*
X63701Y-150394D03*
X58504Y-8504D03*
X68504D03*
X73701Y-150394D03*
X83701D03*
X78504Y-8504D03*
X88504D03*
X93701Y-150394D03*
X120079Y-240157D03*
X122047Y-212598D03*
Y-162598D03*
X125984Y-97559D03*
Y-87559D03*
Y-77559D03*
Y-67559D03*
Y-57559D03*
Y-47559D03*
Y-37559D03*
X139764Y-240157D03*
X137795Y-212598D03*
Y-162598D03*
G54D12*
X88740Y-249515D03*
X108268Y-227190D03*
X98504Y-8504D03*
X125984Y-27559D03*
G54D13*
G01X22638Y-197886D02*
Y-193898D01*
G01D02*
Y-189909D01*
G01X18650Y-193898D02*
X22638D01*
G01D02*
X26626D01*
G01X22638Y-172689D02*
Y-168701D01*
G01D02*
Y-164713D01*
G01X18650Y-168701D02*
X22638D01*
G01D02*
X26626D01*
G01X45224Y-227190D02*
X49213D01*
G01X68740Y-253504D02*
Y-249515D01*
G01D02*
Y-245527D01*
G01X64752Y-249515D02*
X68740D01*
G01D02*
X72728D01*
G01X49213Y-231178D02*
Y-227190D01*
G01D02*
Y-223202D01*
G01Y-227190D02*
X53201D01*
G01X63701Y-154382D02*
Y-150394D01*
G01D02*
Y-146406D01*
G01X59713Y-150394D02*
X63701D01*
G01D02*
X67689D01*
G01X120079Y-244146D02*
Y-240157D01*
G01D02*
Y-236169D01*
G01X116091Y-240157D02*
X120079D01*
G01D02*
X124067D01*
G01X125984Y-91547D02*
Y-87559D01*
G01D02*
Y-83571D01*
G01X121996Y-87559D02*
X125984D01*
G01D02*
X129972D01*
G54D14*
G01X19685Y-292520D02*
Y-269291D01*
G01X68898Y-18898D02*
X33071D01*
X28346Y-23622D01*
Y-89488D01*
X36417Y-97559D01*
G01X40354Y-168307D02*
Y-193898D01*
G01X55118Y-137795D02*
X40354Y-152559D01*
Y-168307D01*
G01X36417Y-57559D02*
X41811D01*
X47244Y-62992D01*
Y-113937D01*
X83701Y-150394D01*
G01X36417Y-37559D02*
X41890D01*
X145669Y-141339D01*
Y-153937D01*
G01X55118Y-106299D02*
X78740Y-129921D01*
G01X68504Y-8504D02*
X117559Y-57559D01*
X125984D01*
G01X88740Y-249515D02*
X92854Y-245402D01*
X94631D01*
X108268Y-231765D01*
Y-227190D01*
G01X122047Y-162598D02*
Y-146173D01*
X117606Y-141732D01*
X86614D01*
X83701Y-144646D01*
Y-150394D01*
G01X76772Y-116142D02*
X94488Y-98425D01*
G01X78504Y-8504D02*
X100315Y-30315D01*
X108740D01*
X125984Y-47559D01*
G01X116929Y-22835D02*
X102835D01*
X88504Y-8504D01*
G01X122047Y-212598D02*
X112381Y-222264D01*
Y-223076D01*
X108268Y-227190D01*
G01D02*
Y-164961D01*
X93701Y-150394D01*
G01X125984Y-67559D02*
X122749Y-70794D01*
X122119D01*
X102362Y-90551D01*
G01X137795Y-212598D02*
X122047D01*
G01X137795Y-300394D02*
Y-242126D01*
X139764Y-240157D01*
G01D02*
X145669Y-234252D01*
Y-153937D01*
G01X137795Y-162598D02*
Y-158024D01*
X141882Y-153937D01*
X145669D01*
M02*
