G04 ================== begin FILE IDENTIFICATION RECORD ==================*
G04 Layout Name:  180708_planta-twittera-rev2_gerbers.brd*
G04 Film Name:    TMK*
G04 File Format:  Gerber RS274X*
G04 File Origin:  Cadence Allegro 17.2-P019*
G04 Origin Date:  Mon Jul 09 10:24:24 2018*
G04 *
G04 Layer:  BOARD GEOMETRY/SOLDERMASK_TOP*
G04 Layer:  PACKAGE GEOMETRY/SOLDERMASK_TOP*
G04 Layer:  PIN/SOLDERMASK_TOP*
G04 Layer:  VIA CLASS/SOLDERMASK_TOP*
G04 *
G04 Offset:    (0.0000 0.0000)*
G04 Mirror:    No*
G04 Mode:      Positive*
G04 Rotation:  0*
G04 FullContactRelief:  No*
G04 UndefLineWidth:     0.0000*
G04 ================== end FILE IDENTIFICATION RECORD ====================*
%FSLAX25Y25*MOIN*%
%IR0*IPPOS*OFA0.00000B0.00000*MIA0B0*SFA1.00000B1.00000*%
%AMMACRO12*
4,1,11,.008701,.021685,
.033496,-.00311,
.033496,-.012638,
.024449,-.021685,
.014921,-.021685,
0.0,-.006764,
-.014921,-.021685,
-.024449,-.021685,
-.033496,-.012638,
-.033496,-.00311,
-.008701,.021685,
.008701,.021685,
0.0*
%
%ADD12MACRO12*%
%AMMACRO11*
4,1,11,0.0,.031941,
.016575,.015366,
.024449,.015366,
.033496,.006319,
.033496,-.007146,
.008701,-.031941,
-.008701,-.031941,
-.033496,-.007146,
-.033496,.006319,
-.024449,.015366,
-.016575,.015366,
0.0,.031941,
0.0*
%
%ADD11MACRO11*%
%ADD10C,.064*%
%ADD13R,.064X.064*%
G75*
%LPD*%
G75*
G36*
G01X19685Y-442190D02*
X11417Y-417387D01*
Y-397475D01*
X15191Y-393701D01*
X11417Y-389927D01*
Y-369916D01*
X15191Y-366142D01*
X11417Y-362368D01*
Y-342357D01*
X15191Y-338583D01*
X11417Y-334809D01*
Y-314798D01*
X15191Y-311024D01*
X11417Y-307250D01*
Y-295032D01*
X19685Y-290898D01*
X27953Y-295032D01*
Y-307250D01*
X24179Y-311024D01*
X27953Y-314798D01*
Y-334809D01*
X24179Y-338583D01*
X27953Y-342357D01*
Y-362368D01*
X24179Y-366142D01*
X27953Y-369916D01*
Y-389927D01*
X24179Y-393701D01*
X27953Y-397475D01*
Y-417387D01*
X19685Y-442190D01*
G37*
G36*
G01X11811Y-36220D02*
Y-38976D01*
X16535D01*
Y-36220D01*
X11811D01*
G37*
G36*
G01X137795Y-442190D02*
X129528Y-417387D01*
Y-397475D01*
X133302Y-393701D01*
X129528Y-389927D01*
Y-369916D01*
X133302Y-366142D01*
X129528Y-362368D01*
Y-342357D01*
X133302Y-338583D01*
X129528Y-334809D01*
Y-314798D01*
X133302Y-311024D01*
X129528Y-307250D01*
Y-295032D01*
X137795Y-290898D01*
X146063Y-295032D01*
Y-307250D01*
X142289Y-311024D01*
X146063Y-314798D01*
Y-334809D01*
X142289Y-338583D01*
X146063Y-342357D01*
Y-362368D01*
X142289Y-366142D01*
X146063Y-369916D01*
Y-389927D01*
X142289Y-393701D01*
X146063Y-397475D01*
Y-417387D01*
X137795Y-442190D01*
G37*
G54D10*
X22638Y-193898D03*
Y-168701D03*
X49213Y-227190D03*
X40354Y-193898D03*
Y-168307D03*
X36417Y-97559D03*
Y-77559D03*
Y-87559D03*
Y-57559D03*
Y-67559D03*
Y-37559D03*
Y-47559D03*
Y-27559D03*
X68740Y-249515D03*
X63701Y-150394D03*
X58504Y-8504D03*
X68504D03*
X73701Y-150394D03*
X83701D03*
X78504Y-8504D03*
X88504D03*
X93701Y-150394D03*
X120079Y-240157D03*
X122047Y-212598D03*
Y-162598D03*
X125984Y-97559D03*
Y-87559D03*
Y-77559D03*
Y-67559D03*
Y-57559D03*
Y-47559D03*
Y-37559D03*
X139764Y-240157D03*
X137795Y-212598D03*
Y-162598D03*
G54D11*
X14173Y-40132D03*
G54D12*
Y-35827D03*
G54D13*
X88740Y-249515D03*
X108268Y-227190D03*
X98504Y-8504D03*
X125984Y-27559D03*
M02*
