G04 ================== begin FILE IDENTIFICATION RECORD ==================*
G04 Layout Name:  180708_planta-twittera-rev2_gerbers.brd*
G04 Film Name:    TOP*
G04 File Format:  Gerber RS274X*
G04 File Origin:  Cadence Allegro 17.2-P019*
G04 Origin Date:  Mon Jul 09 10:24:24 2018*
G04 *
G04 Layer:  VIA CLASS/TOP*
G04 Layer:  PIN/TOP*
G04 Layer:  ETCH/TOP*
G04 *
G04 Offset:    (0.0000 0.0000)*
G04 Mirror:    No*
G04 Mode:      Positive*
G04 Rotation:  0*
G04 FullContactRelief:  No*
G04 UndefLineWidth:     0.0000*
G04 ================== end FILE IDENTIFICATION RECORD ====================*
%FSLAX25Y25*MOIN*%
%IR0*IPPOS*OFA0.00000B0.00000*MIA0B0*SFA1.00000B1.00000*%
%AMMACRO13*
4,1,11,-.007874,.019685,
.007874,.019685,
.031496,-.003937,
.031496,-.011811,
.023622,-.019685,
.015748,-.019685,
0.0,-.003937,
-.015748,-.019685,
-.023622,-.019685,
-.031496,-.011811,
-.031496,-.003937,
-.007874,.019685,
0.0*
%
%ADD13MACRO13*%
%AMMACRO12*
4,1,11,0.0,.029528,
.015748,.01378,
.023622,.01378,
.031496,.005906,
.031496,-.005906,
.007874,-.029528,
-.007874,-.029528,
-.031496,-.005906,
-.031496,.005906,
-.023622,.01378,
-.015748,.01378,
0.0,.029528,
0.0*
%
%ADD12MACRO12*%
%ADD10C,.026*%
%ADD11C,.06*%
%ADD14R,.06X.06*%
%ADD15C,.007874*%
%ADD16C,.015748*%
%ADD17C,.075764*%
G75*
%LPD*%
G75*
G36*
G01X7874Y-271654D02*
G02X3937Y-267717I0J3937D01*
G01Y-23622D01*
G02X7874Y-19685I3937J0D01*
G01X47244D01*
Y-39370D01*
X114173D01*
Y-19685D01*
X149606D01*
G02X153543Y-23622I0J-3937D01*
G01Y-267717D01*
G02X149606Y-271654I-3937J0D01*
G01X125984D01*
G02X122047Y-267717I0J3937D01*
G03X110236Y-255906I-11811J0D01*
G01X47244D01*
G03X35433Y-267717I0J-11811D01*
G02X31496Y-271654I-3937J0D01*
G01X7874D01*
G37*
G36*
G01X11811Y-417323D02*
Y-397638D01*
X15748Y-393701D01*
X11811Y-389764D01*
Y-370079D01*
X15748Y-366142D01*
X11811Y-362205D01*
Y-342520D01*
X15748Y-338583D01*
X11811Y-334646D01*
Y-314961D01*
X15748Y-311024D01*
X11811Y-307087D01*
Y-295276D01*
X19685Y-291339D01*
X27559Y-295276D01*
Y-307087D01*
X23622Y-311024D01*
X27559Y-314961D01*
Y-334646D01*
X23622Y-338583D01*
X27559Y-342520D01*
Y-362205D01*
X23622Y-366142D01*
X27559Y-370079D01*
Y-389764D01*
X23622Y-393701D01*
X27559Y-397638D01*
Y-417323D01*
X20065Y-439807D01*
G02X19306I-380J127D01*
G01X11811Y-417323D01*
G37*
G36*
G01X129921D02*
Y-397638D01*
X133858Y-393701D01*
X129921Y-389764D01*
Y-370079D01*
X133858Y-366142D01*
X129921Y-362205D01*
Y-342520D01*
X133858Y-338583D01*
X129921Y-334646D01*
Y-314961D01*
X133858Y-311024D01*
X129921Y-307087D01*
Y-295276D01*
X137795Y-291339D01*
X145669Y-295276D01*
Y-307087D01*
X141732Y-311024D01*
X145669Y-314961D01*
Y-334646D01*
X141732Y-338583D01*
X145669Y-342520D01*
Y-362205D01*
X141732Y-366142D01*
X145669Y-370079D01*
Y-389764D01*
X141732Y-393701D01*
X145669Y-397638D01*
Y-417323D01*
X137985Y-440376D01*
G02X137606I-190J63D01*
G01X129921Y-417323D01*
G37*
%LPC*%
G75*
G36*
G01X122196Y-30559D02*
Y-24559D01*
G02X122984Y-23771I788J0D01*
G01X128984D01*
G02X129772Y-24559I0J-788D01*
G01Y-30559D01*
G02X128984Y-31347I-788J0D01*
G01X122984D01*
G02X122196Y-30559I0J788D01*
G37*
G36*
G01X104480Y-230190D02*
Y-224190D01*
G02X105268Y-223402I788J0D01*
G01X111268D01*
G02X112056Y-224190I0J-788D01*
G01Y-230190D01*
G02X111268Y-230978I-788J0D01*
G01X105268D01*
G02X104480Y-230190I0J788D01*
G37*
G36*
G01X84952Y-252515D02*
Y-246515D01*
G02X85740Y-245727I788J0D01*
G01X91740D01*
G02X92528Y-246515I0J-788D01*
G01Y-252515D01*
G02X91740Y-253304I-788J0D01*
G01X85740D01*
G02X84952Y-252515I0J788D01*
G37*
G36*
G01X102506Y-92635D02*
X96572Y-98569D01*
X96565Y-98640D01*
G02X94274Y-96348I-2077J215D01*
G01X94344Y-96341D01*
X100278Y-90407D01*
X100285Y-90337D01*
G02X102577Y-92628I2077J-215D01*
G01X102506Y-92635D01*
G37*
G36*
G01X39969Y-98883D02*
X45810Y-104724D01*
X53748D01*
G02Y-107875I1370J-1576D01*
G01X44505D01*
X37741Y-101111D01*
X37623Y-101150D01*
G02X40008Y-98765I-1206J3591D01*
G01X39969Y-98883D01*
G37*
G36*
G01X54904Y-135718D02*
X54974Y-135711D01*
X74687Y-115998D01*
X74694Y-115927D01*
G02X76986Y-118219I2077J-215D01*
G01X76915Y-118226D01*
X57202Y-137939D01*
X57195Y-138010D01*
G02X54904Y-135718I-2077J215D01*
G37*
G36*
G01X80824Y-129778D02*
X95276Y-144229D01*
Y-146949D01*
G02X92125I-1576J-3445D01*
G01Y-145535D01*
X78596Y-132006D01*
X78526Y-131998D01*
G02X80817Y-129707I215J2077D01*
G01X80824Y-129778D01*
G37*
G36*
G01X17503Y-45983D02*
X32972D01*
G02Y-49135I3445J-1576D01*
G01X16198D01*
X12598Y-45535D01*
Y-43452D01*
X10235Y-41090D01*
Y-39256D01*
X11196Y-38295D01*
X10235Y-37334D01*
Y-35894D01*
X12598Y-33532D01*
Y-31631D01*
X18245Y-25983D01*
X32972D01*
G02Y-29135I3445J-1576D01*
G01X19550D01*
X15749Y-32936D01*
Y-33532D01*
X18111Y-35894D01*
Y-37334D01*
X17150Y-38295D01*
X18111Y-39256D01*
Y-41090D01*
X15749Y-43452D01*
Y-44229D01*
X17503Y-45983D01*
G37*
G54D17*
X22638Y-193898D03*
Y-168701D03*
X49213Y-227190D03*
X40354Y-193898D03*
Y-168307D03*
X36417Y-77559D03*
Y-87559D03*
Y-57559D03*
Y-67559D03*
Y-37559D03*
X68740Y-249515D03*
X63701Y-150394D03*
X73701D03*
X83701D03*
X120079Y-240157D03*
X122047Y-212598D03*
Y-162598D03*
X125984Y-97559D03*
Y-87559D03*
Y-77559D03*
Y-67559D03*
Y-57559D03*
Y-47559D03*
Y-37559D03*
X139764Y-240157D03*
X137795Y-212598D03*
Y-162598D03*
%LPD*%
G75*
G54D10*
X9055Y-261811D03*
X19685Y-418819D03*
Y-398819D03*
Y-408819D03*
Y-378819D03*
Y-388819D03*
Y-368819D03*
Y-358819D03*
Y-348819D03*
Y-338819D03*
Y-328819D03*
Y-318819D03*
Y-308819D03*
Y-298819D03*
Y-261811D03*
X20472Y-204331D03*
X13780D03*
Y-161024D03*
X28346Y-141732D03*
X13780Y-126772D03*
Y-101969D03*
Y-75197D03*
Y-50787D03*
Y-27559D03*
X29921Y-261811D03*
X64961Y-198031D03*
X55118Y-137795D03*
Y-106299D03*
X67717Y-88976D03*
X53543Y-57874D03*
X68898Y-18898D03*
X71260Y-167717D03*
X78740Y-129921D03*
X76772Y-116142D03*
X77165Y-46850D03*
X91732Y-209055D03*
X100394Y-114173D03*
X94488Y-98425D03*
X102362Y-90551D03*
X90945Y-57087D03*
X127953Y-261417D03*
X113386Y-176378D03*
X137795Y-420394D03*
Y-410394D03*
Y-400394D03*
Y-390394D03*
Y-380394D03*
Y-370394D03*
Y-360394D03*
Y-350394D03*
Y-340394D03*
Y-330394D03*
Y-320394D03*
Y-300394D03*
Y-310394D03*
X146063Y-261417D03*
X148819Y-71260D03*
X148425Y-50394D03*
Y-29528D03*
X150394Y-248819D03*
Y-217323D03*
Y-194882D03*
Y-173228D03*
G54D11*
X22638Y-193898D03*
Y-168701D03*
X49213Y-227190D03*
X40354Y-193898D03*
Y-168307D03*
X36417Y-97559D03*
Y-77559D03*
Y-87559D03*
Y-57559D03*
Y-67559D03*
Y-37559D03*
Y-47559D03*
Y-27559D03*
X68740Y-249515D03*
X63701Y-150394D03*
X58504Y-8504D03*
X68504D03*
X73701Y-150394D03*
X83701D03*
X78504Y-8504D03*
X88504D03*
X93701Y-150394D03*
X120079Y-240157D03*
X122047Y-212598D03*
Y-162598D03*
X125984Y-97559D03*
Y-87559D03*
Y-77559D03*
Y-67559D03*
Y-57559D03*
Y-47559D03*
Y-37559D03*
X139764Y-240157D03*
X137795Y-212598D03*
Y-162598D03*
G54D12*
X14173Y-40173D03*
G54D13*
Y-35827D03*
G54D14*
X88740Y-249515D03*
X108268Y-227190D03*
X98504Y-8504D03*
X125984Y-27559D03*
G54D15*
G01X22638Y-197886D02*
Y-193898D01*
G01D02*
Y-189909D01*
G01X18650Y-193898D02*
X22638D01*
G01D02*
X26626D01*
G01X22638Y-172689D02*
Y-168701D01*
G01D02*
Y-164713D01*
G01X18650Y-168701D02*
X22638D01*
G01D02*
X26626D01*
G01X45224Y-227190D02*
X49213D01*
G01X68740Y-253504D02*
Y-249515D01*
G01D02*
Y-245527D01*
G01X64752Y-249515D02*
X68740D01*
G01D02*
X72728D01*
G01X49213Y-231178D02*
Y-227190D01*
G01D02*
Y-223202D01*
G01Y-227190D02*
X53201D01*
G01X63701Y-154382D02*
Y-150394D01*
G01D02*
Y-146406D01*
G01X59713Y-150394D02*
X63701D01*
G01D02*
X67689D01*
G01X120079Y-244146D02*
Y-240157D01*
G01D02*
Y-236169D01*
G01X116091Y-240157D02*
X120079D01*
G01D02*
X124067D01*
G01X125984Y-91547D02*
Y-87559D01*
G01D02*
Y-83571D01*
G01X121996Y-87559D02*
X125984D01*
G01D02*
X129972D01*
G54D16*
G01X36417Y-47559D02*
X16850D01*
X14173Y-44882D01*
Y-42339D01*
G01X36417Y-27559D02*
X18898D01*
X14173Y-32283D01*
Y-34646D01*
G01X36417Y-97559D02*
X45157Y-106299D01*
X55118D01*
G01Y-137795D02*
X76772Y-116142D01*
G01X68898Y-18898D02*
X92685D01*
X98504Y-13079D01*
Y-8504D01*
G01X93701Y-150394D02*
Y-144882D01*
X78740Y-129921D01*
G01X94488Y-98425D02*
X102362Y-90551D01*
M02*
